<?xml version="1.0" encoding="UTF-8"?>
<svg version="1.1" viewBox="0 0 2048 2048" width="194" height="194" xmlns="http://www.w3.org/2000/svg">
<path transform="translate(996)" d="m0 0h57l7 8 8 11 12 25 10 28 7 28 5 32 1 30 5 2 35 5 27 5 3-12 13-33 13-26 10-17 11-16 13-16 9-11 7-7 2-1 11 1 31 7 20 6 8 5 4 7 5 22 4 31 1 27-1 20-5 32-6 23 9 3 27 11 24 10 6 2 2-4 5-9 11-15 7-9 11-13 11-12 13-13 8-7 11-9 12-9 10-7 12-7 9 3 17 8 14 8 14 10 7 7 3 6 1 9-2 22-5 30-6 24-9 27-11 26-7 13 1 4 19 14 18 14 8 6v2l4 2h3l10-9 16-13 13-10 20-13 18-10 23-11 27-10 7-2 9 1 8 5 10 9 20 20 8 10 3 8-2 9-11 30-10 21-14 24-12 18-10 13-11 13-7 7-4 3 1 4 9 10 10 14 10 13 8 10 4 1 35-16 23-8 18-5 24-5 29-4 11-1h14l7 6 12 18 14 25 4 10v7l-7 12-12 16-11 14-9 10-11 12-24 22-18 13-13 8-7 4 1 7 15 36 7 16 1 1 9-1 24-4 35-3h30l33 3 22 4 8 4 6 9 8 27 6 27-1 6-4 5-8 7-12 11-14 10-15 10-21 12-22 11-26 10-17 6 2 13 4 29 2 20 1 2 21 2 18 2 34 6 22 6 24 9 36 17 5 3-4 5-4 11-1 34-1 16-3 6-18 10-29 12-29 9-28 6-26 4-22 2-4 1-4 32-3 21v10l27 9 18 8 17 8 19 11 15 10 19 14 14 12 7 7 2 4v9l-6 26-8 27-4 6-6 3-31 6-25 3h-43l-27-3-27-5-5-1-3 10-8 20-11 27 5 5 17 12 13 10 13 12 8 7 18 18 7 8 10 12 10 14 8 13 3 8-5 12-8 15-11 19-9 12-5 4-2 1h-9l-33-3-18-3-17-4-29-9-27-11-19-9-4 1-9 13-13 18-8 11-7 9 2 4 12 12 9 11 11 15 12 20 9 16 10 21 9 24 4 12v9l-8 11-15 16-13 13-10 7-7 1-37-13-18-8-23-13-21-14-16-12-15-13-5-4-6-1-9 7-17 13-16 12-5 4 2 6 11 25 9 25 6 19 7 30 4 27v24l-7 8-14 10-15 9-17 9-8 3-7-1-12-7-21-16-14-12-29-29-9-11-15-20-10-14-5-1-17 8-24 10-14 7-1 2 5 22 4 28 1 11v37l-4 33-5 21-4 8-6 4-20 6-30 8-9 1-7-4-7-7-7-8-12-15-12-17-12-20-12-24-11-28-5-17-11 1-41 6-12 3v13l-2 19-6 36-6 23-8 23-12 26-8 14-4 3-16 3-3 2h-18l-25-5-6-2-5-5-8-15-11-26-8-24-7-30-4-24-3-31v-2l-19-2-46-6-3 4-7 21-9 22-10 21-15 25-14 19-9 11-11 12-4 4h-11l-24-6-27-9-6-4-3-4-5-18-5-30-1-11v-41l4-30 5-21 2-9-9-3-34-14-16-7-6 10-11 16-9 12-13 15-22 22-11 9-16 13-23 15-3 1h-7l-17-8-23-13-16-12-3-5v-13l3-30 5-25 7-26 11-30 13-27 1-4-5-5-13-9-12-9-14-11-5-4-7-1-12 11-10 8-14 10-17 11-18 10-27 13-28 10-10 3-6-1-6-4-32-32-4-5-5-5 1-8 8-25 9-21 13-25 20-30 13-16 11-12 4-5-1-5-8-11-14-18-10-13-4-6v-2l-6 1-19 9-25 10-25 8-26 6-25 4-19 2h-12l-7-6-10-15-12-21-10-19 1-7 10-15 8-11 8-10 11-13 12-13 12-12 14-11 10-8 14-10 13-9-8-19-10-24-5-13-2-2-10 1-31 5-20 2-17 1h-15l-28-2-26-4-13-4-6-7-8-24-8-33v-7l4-7 7-7 14-11 17-13 17-11 16-9 16-8 19-8 25-9 3-2v-13l-6-39-1-12-1-2-3-1-36-3-24-4-32-8-20-7-19-8-19-10-10-7v-63l14-9 22-11 23-9 20-6 24-6 19-3 37-3 4-3 3-18 3-22 3-15-1-5-8-4-22-8-20-9-24-12-19-12-13-9-11-9-10-9-9-8-3-5v-9l10-40 4-12 5-7 9-4 29-6 18-2h44l32 3 18 4 8 2 5-5 7-14 8-20 8-16-1-4-17-11-13-10-17-14-13-12-14-14-9-11-10-12-14-21-5-9v-6l12-20 10-18 10-15 6-6h13l34 4 23 4 24 7 25 9 22 10 9 5 4 1 8-9 14-19 10-13 9-11-2-4-9-9-9-11-14-19-12-19-9-16-10-21-8-21-7-21 5-8 11-12 7-7 7-8 8-7 11-9 5-3 9 1 29 10 18 8 22 12 19 12 19 14 14 12 9 9 5 1 10-9 16-12 13-10 7-6-2-6-8-16-10-24-8-24-7-28-4-25-3-24 1-9 5-6 17-11 26-15 8-4h9l10 5 11 7 16 12 15 13 23 23 7 8 11 14 12 17 7 11 3 1 15-7 21-8 21-9 3-2-1-8-4-19-3-28v-40l2-25 6-31 4-8 7-5 21-7 24-6 6-1h12l9 6 12 14 12 15 10 15 10 17 8 16 9 19 11 28 3 9 14-2 31-4 19-2 2-16 3-25 6-31 5-19 7-21 10-23 9-15 6-7 5-5zm3 214-28 1-44 4-36 5-55 11-37 10-41 13-28 10-28 12-20 9-25 12-22 12-19 10-23 14-25 16-16 12-17 12-21 16-9 11-5 9 2 6 5 9 11 13 7 8 9 10 7 8 18 20 7 8 11 12 9 11 8 8 11 8 10-2 21-14 9-7 18-13 17-11 21-13 24-13 28-14 20-9 26-10 33-11 32-9 40-8 35-5 30-3 40-2h23l35 2 44 5 30 5 39 9 31 9 40 14 30 13 29 14 19 10 28 17 17 11 16 11 22 15 17 9 8-4 11-9 11-11 9-11 13-14 9-11 15-16 7-8 11-12 11-14 4-7-2-6-7-11-10-10-16-12-15-11-17-12-20-13-21-13-14-8-24-13-19-10-36-17-29-12-34-12-31-10-36-10-36-8-49-8-35-4-31-2-32-1zm108 235-6 7-4 10v19l13 186 9 120 3 17 7 9 4 3 8 3h8l13-4 25-12 37-18 28-13 22-11 23-11 31-15 28-13 45-22 52-25 12-8 3-4-1-9-9-14-9-10-33-33-8-7-14-12-15-12-16-12-17-12-15-10-18-11-21-12-25-13-29-13-26-10-36-12-34-10-21-5zm-188 4-22 5-33 9-36 12-21 8-23 10-25 12-21 11-22 13-31 21-19 14-14 12-14 11-7 7-11 9-23 23-10 9-7 8-7 9-5 9 2 5 5 5 10 7 48 24 23 11 39 19 23 11 41 20 23 11 45 22 25 12 19 9 18 7h7l11-6 5-6 4-11 3-30 9-117 11-158 1-13v-21l-3-8-6-5zm-478 14-13 8-10 9-11 12-7 8-14 17-13 17-10 13-16 23-11 17-13 21-13 23-14 27-14 29-12 28-13 35-7 21-10 34-9 36-10 52-4 33-4 48-1 26v34l1 27 3 36 5 41 7 40 5 21 4 8 6 7 5 3 9 1 28-8 44-13 51-15 10-5 9-7 3-6-1-16-8-57-4-40-1-18v-55l2-28 4-34 5-30 8-35 12-39 12-32 12-27 14-28 14-24 12-19 11-16 13-18 22-28 9-10 9-11 6-8 4-7-1-8-8-13-8-10-82-82-12-8zm1152 1-9 6-12 11-17 17v2l-4 2-55 55-10 13-4 9 1 7 6 11 12 14 10 11 11 14 10 13 14 19 8 12 12 19 14 24 14 27 13 29 10 26 10 31 8 31 7 34 6 46 2 24 1 24v30l-1 24-6 56-4 28-3 16v17l4 7 8 6 12 5 70 21 43 12 12 2h7l8-9 4-8 6-27 6-32 4-30 4-41 2-45v-30l-2-41-4-43-4-28-7-38-12-48-9-30-13-38-15-37-16-34-17-33-14-24-12-19-14-21-13-18-10-13-11-14-11-13-7-8-9-10-10-11-10-8-8-4zm-1109 341-6 10-5 11-9 32-11 49-6 42-3 29-1 12v54l3 37 6 41 10 49 9 33 4 12 6 8 5 5 5 1 11-4 15-8 20-14 15-10 16-11 15-10 23-16 12-8 20-14 15-10 25-17 16-11 25-17 17-12 15-10 16-11 11-8 8-8 4-7 1-5-4-11-6-9-11-9-18-12-71-48-30-20-71-48-69-46-12-7-11-4zm1066-1-12 3-12 7-15 10-22 15-12 8-19 13-22 15-23 16-21 14-13 9-22 15-15 10-16 11-22 15-23 16-16 11-10 10-4 9-1 6 4 10 6 9 13 10 24 16 11 8 53 36 19 13 31 21 35 24 25 17 23 16 32 21 21 12 6-2 9-11 5-14 10-38 9-42 6-44 2-19 1-16v-56l-3-37-4-31-7-36-9-38-7-23-6-14-4-5zm-544 12-27 3-17 4-23 8-21 10-15 10-13 10-8 7-16 16-11 14-10 15-9 16-10 24-4 13-5 24-1 9v32l3 24 4 17 7 20 7 16 11 19 12 16 9 10 18 18 17 13 13 8 19 10 25 9 22 5 15 2 17 1h11l20-2 20-4 23-7 22-10 18-10 16-12 15-13 10-10 11-14 10-15 7-12 6-13 8-22 6-26 2-24-1-25-4-27-5-19-11-26-10-18-11-16-11-13-17-17-17-13-18-11-14-7-18-7-23-6-19-3-10-1zm134 395-12 9-4 6-3 9-3 25-7 96-5 66-5 76-3 38-1 22 2 16 3 6 5 4 2 1h14l45-12 36-12 32-12 23-10 16-8 23-12 27-16 24-16 14-10 12-9 11-9 13-11 14-12 17-16 14-14 5-4 7-8 10-11 2-4v-9l-7-8-14-9-46-23-23-11-29-14-51-25-33-16-37-18-28-13-28-14-18-7-5-1zm-248 5-15 4-40 19-41 20-70 34-23 11-47 23-25 12-42 21-12 9-4 5 1 7 9 14 16 17 14 14 8 7 7 7 8 7 15 13 15 12 13 10 19 13 10 7 18 11 19 11 27 14 17 8 26 11 24 9 34 11 30 8 22 5h10l5-5 4-13v-18l-14-199-6-84-2-25-4-16-5-8-6-4-6-2zm-481 22-18 4-36 12-62 21-20 8-7 6-3 7 1 9 5 15 9 21 13 29 13 26 10 17 10 18 13 21 9 13 17 25 12 16 9 11 10 13 12 14 7 8 16 17 14 15 12 12 8 7 17 16 11 10 11 9 17 14 16 12 15 11 10 7 30 19 20 12 17 10 26 14 24 12 35 15 29 11 35 12 39 11 29 7 42 8 36 5 50 4 30 1h30l30-1 36-3 41-5 28-5 56-13 35-10 35-12 30-12 26-11 39-19 24-13 17-10 18-11 15-10 19-13 15-11 20-15 22-18 12-11 8-7 10-9 13-12 17-17 7-8 7-7 7-8 12-13 9-11 12-15 9-12 10-13 10-14 12-18 7-11 13-22 8-14 10-18 9-16 14-31 13-32 4-15-1-5-6-5-11-5-24-9-65-22-31-10-9-2h-6l-5 3-7 11-4 6-5 13-17 35-13 24-9 15-12 19-12 17-10 14-13 16-11 14-9 11-16 17-30 30-8 7-12 11-16 12-26 20-15 10-17 11-25 15-23 12-27 13-36 15-36 12-32 9-37 8-46 7-30 3-16 1h-48l-45-3-31-4-52-10-42-12-33-11-24-10-16-7-38-19-24-14-19-12-22-15-19-14-17-14-11-9-17-16-13-12-16-16-7-8-9-10-9-11-12-14-12-16-11-15-14-21-9-15-11-19-13-25-15-33-8-16-4-6-5-4z" fill="#FEA700"/>
<path transform="translate(996,840)" d="m0 0h44l19 3 20 6 15 6 19 10 14 10 13 11 18 18 10 13 9 15 8 16 7 19 5 17 3 22v29l-3 22-6 23-9 21-8 15-12 17-12 14-14 14-17 13-14 8-19 9-21 7-18 4-17 2h-23l-20-2-19-4-22-8-16-8-12-7-16-12-15-14-11-12-11-15-10-18-8-17-6-19-4-20-2-24 1-22 4-24 6-19 7-16 8-15 8-12 12-16 16-16 11-9 15-10 16-9 23-9 22-5zm-7 35-4 4 1 22-2 5-8 4-9 4-13 8-13 10-12 12-8 11-9 16-6 15-4 17-1 7v24l3 17 5 17 12 23 9 11 15 15 14 10 15 8 21 7 13 2h27l21-5 15-6 15-8 16-12 11-11 9-11 9-16 8-24 3-20v-17l-4-22-5-14-8-16-8-12-9-11-7-7-14-10-16-9-19-8-3-5v-21l-2-3-3-1z" fill="#FEA700"/>
<path transform="translate(1482,1485)" d="m0 0 5 1 10 8 7 7 7 8 7 7 7 8 17 17 7 8 13 13 7 8 5 6-1 6-7 8-7 5-7 2-9-3-38-10-31-10-7-2 6 10 10 12 24 32 2 4v5l-9 9-5 3-7-1-8-9-13-18-24-32-24-34-5-7 1-5 8-5 6-2h8l30 8 26 8 14 5 9 3-3-5-12-13-7-7-7-8-15-16-4-5 1-6 9-8z" fill="#FEA700"/>
<path transform="translate(472,1385)" d="m0 0 6 5 7 11 1 9-11 31-6 18-8 19-3 10 10-6 12-12 11-9 14-11 9-7 7 4 8 8 2 4-1 4-14 12-11 9-28 24-10 9-13 11-11 9-6 5-8 2-4-4-9-15-1-6 4-9 16-49 5-12 3-11-11 6-9 7-16 12-15 10-8 5-6-1-7-8-6-9 2-4 11-7 28-19 30-20 19-13 12-8z" fill="#FEA700"/>
<path transform="translate(876,1661)" d="m0 0 5 1 11 6 6 9 16 35 10 25 6 10 2 1v-12l3-28 4-30 4-3h16l4 1v13l-4 42-6 50-2 21-2 4-14-1-10-3-6-5-14-32-9-20-8-18-3-6-3-1-3 24-8 36-2 10-4 3-11-1-10-3-2-2 1-9 14-62 10-40 3-11 3-3z" fill="#FEA700"/>
<path transform="translate(671,321)" d="m0 0 10 1 9 4 9 7 8 9 7 14 1 4v9l-2 9-1 6 8 7 22 15 9 6 4 3-2 4-5 4-15 7-8-2-13-10-18-13-8-1-16 8 3 9 7 11 6 10 4 7-1 5-10 8-6 4-4 3-5-5-4-5-9-16-10-18-9-16-14-26-12-21-1-6 14-9 21-12 12-7 15-6zm-5 26-8 4-10 6-6 4-1 4 4 10 10 13 4 1 24-13 3-5v-8l-3-9-5-6-3-1z" fill="#FEA700"/>
<path transform="translate(1202,261)" d="m0 0 11 1 35 10 20 8 9 6 6 9 3 9 1 6v12l-4 13-7 11-7 6-10 6v8l4 22 2 15v7l-5 1-12-5-8-6-2-4-4-33-3-9-8-5-11-3-4 4-7 25-3 10-1 2-6 1-20-6-5-3 1-6 9-27 9-31 13-42zm22 30-5 5-4 11v12l4 4 12 5 10 2 11-2 5-5 1-4v-15l-4-5-14-5z" fill="#FEA700"/>
<path transform="translate(751,1624)" d="m0 0 9 1 22 8 25 10 10 6 7 6 5 10 2 7-1 14-5 13-8 10-4 3-13 5-2 3 3 41 1 7v8l-10-1-12-3-6-4-2-11v-38l-3-7-9-6-10-4h-2l-5 10-8 20-5 13-4 6-6-2-14-7-3-4 12-28 11-28 13-30 9-21zm17 32-5 5-4 8v8l3 5 12 6 9 3 12 1 7-3 3-6v-12l-5-5-8-4-20-6z" fill="#FEA700"/>
<path transform="translate(1354,1591)" d="m0 0h22l13 4 14 8 10 9 6 9 5 10 3 11 1 6v17l-6 18-7 10-9 10-9 7-11 5-12 3h-22l-12-3-13-7-12-11-7-10-5-11-3-13v-16l4-16 4-8 7-9 9-9 14-9 11-4zm6 21-10 2-10 5-10 9-7 14-1 11 2 8 4 9 5 8 10 8 11 4 5 1h12l13-5 8-6 7-7 4-8 1-4v-15l-3-10-7-11h-2v-2l-11-7-8-3z" fill="#FEA700"/>
<path transform="translate(807,266)" d="m0 0h13l16 3 10 4 10 7 8 7 9 13 6 14 1 6v17l-2 12-8 16-8 10-9 8-12 6-14 4-6 1h-13l-16-4-13-7-12-11-7-11-6-14-2-8-1-14 3-16 8-16 7-9 10-8 14-7zm3 22-12 4-7 4-10 13-3 9-1 6v13l3 10 6 9 7 7 11 5 10 2h7l11-3 8-4 6-5 8-10 3-9 1-6v-9l-2-11-5-9-8-8-12-6-7-2z" fill="#FEA700"/>
<path transform="translate(649,1566)" d="m0 0 6 2 24 15 19 11 18 10 7 6-1 5-4 8-4 4-9-2-18-8-20-11-7-2-5 1-6 10-4 6v2l15 9 17 9 3 6-2 9-4 5-3 1-10-3-15-9-12-7-6 5-12 18 2 5 24 14 22 12 5 5-2 9-4 8-2 2-5-1-16-8-19-11-21-13-15-10-4-2-2-5 7-11 12-18 13-19 15-22 13-18 8-13z" fill="#FEA700"/>
<path transform="translate(1537,1425)" d="m0 0h7l43 14 49 16 26 9 3 2-1 5-6 8-8 8-6-1-13-5-4 1-10 10-9 11-11 13-2 4v6l1 3 4 2 5 9-2 7-7 8-5 5h-4l-15-25-13-22-16-25-12-20-9-16-1-7 6-10zm19 28 1 5 6 10 6 9 8 14 6 5 5-1 14-19 1-4-5-5-15-5-19-7z" fill="#FEA700"/>
<path transform="translate(1080,238)" d="m0 0 16 2 8 3 4 9 14 52 11 40 7 25-1 4-4 1-20-4-3-4-5-20-18-2-13-1h-22l-6 9-7 13-2 1h-20l-1-1 1-7 19-41 7-15 9-20 18-37 5-5zm5 37-14 29-7 13v2l7 2 17 3 14 1-4-18-6-23-4-9z" fill="#FEA700"/>
<path transform="translate(1037,1679)" d="m0 0h17l4 8 9 27 8 19 17 42 10 24-1 3-15 2h-8l-4-4-4-13-1-2h-34l-21 1-2 4-1 13-3 3-3 1h-13l-7-1-1-7 7-18 6-20 9-27 13-41 4-9 5-4zm0 30-15 43-1 7h34l1-4-13-35-5-11z" fill="#FEA700"/>
<path transform="translate(542,1482)" d="m0 0 7 1 9 6 4 5 9 7 11 9 13 11 10 9 9 7 8 6 3 5v4h-2l-1 7-4 4-5 1-10-5-14-11-4-3h-7l-9 10-7 8-18 22-9 10-8 10-14 15-5-1-13-12-3-4 3-6 9-10 7-7 7-8 9-10 7-8 14-15 11-12-2-5-5-6-8-7-8-9-2-4 1-7z" fill="#FEA700"/>
<path transform="translate(994,237)" d="m0 0h7l2 3 1 5v13l-3 2-24 1-13 2 1 15 8 73 1 13-2 2-12 2h-12l-2-6-5-43-5-52-1-2-22 3-11 2h-8l-3-7-2-7v-6l10-3 44-6 43-3z" fill="#FEA700"/>
<path transform="translate(1327,301)" d="m0 0 8 1 14 7 6 7 3 13 3 21 1 18 16-7 24-11 10-4h8l10 4 8 6-1 3-14 7-11 4-16 8-28 13-5 5-12 22-14 28-2 1-15-8-5-5 1-5 7-14 10-17 6-13v-8l-7-39-6-31v-5z" fill="#FEA700"/>
<path transform="translate(1188,1656)" d="m0 0h7l3 3 2 6v9l-3 3-25 6-11 4 1 10 5 22 9 41 5 25v5l-15 4-10 2-4-11-9-53-6-36-1-4h-9l-21 4h-8l-4-4-2-7v-7l9-3 71-15z" fill="#FEA700"/>
<path transform="translate(1711,1351)" d="m0 0h8l8 3 3 4-3 9-15 28-12 21-9 16-4 3-5-1-17-9-22-12-19-10-23-13-22-12-3-4 3-9 6-12 6 1 24 13 22 12 26 14 10 6 5 2h3l9-15 12-23 7-10z" fill="#FEA700"/>
<path transform="translate(1247,1636)" d="m0 0h5l5 6 12 37 25 75v3l-20 8h-5l-5-11-7-21-14-40-13-37-3-7v-5l9-3z" fill="#FEA700"/>
<path transform="translate(442,1342)" d="m0 0 5 2 5 4 4 10-1 5-5 5-21 12-25 15-26 15-22 13-6 3-5-1-7-10-4-8v-3l19-12 23-13 15-9 21-12 18-10z" fill="#FEA700"/>
</svg>
